# xmcd
#
# Track frame offsets:
#	150
#	9220
#	18301
#	27339
#	36361
#	45422
#	54501
#	63557
#	72584
#	81620
#	90681
#	99730
#	108767
#	117805
#	126859
#	135890
#	144962
#	153955
#	163018
#	172068
#	181129
#	190172
#	199201
#	208234
#	218020
#	227096
#	236158
#	245206
#	254265
#	263276
#	272335
#	281363
#	290373
#	299419
#	308484
#	319763
#	328816
#
# Disc length: 4504 seconds
#
# Revision: 0
# Processed by: cddbd v1.4PL0 Copyright (c) Steve Scherf et al.
# Submitted via: audiograbber 1.82.02
#
DISCID=17119625
DTITLE=Various Artist - DJ LRM - Instrumental World Vol. 11 (Cam'ron and The Diplomats Editio
DTITLE=n)
DYEAR=2003
DGENRE=Hip-Hop
TTITLE0=Cam'ron  - 357 (Magnum P.I.)
TTITLE1=Cam'ron/Noreaga  - Glory
TTITLE2=Cam'ron/Mase - Horse and Carriage
TTITLE3=Cam'ron/Big Pun/Charli Baltimore/Wyclef/Silkk The Shocker - Horse and Car
TTITLE3=riage (Remix)
TTITLE4=Cam'ron/Usher - Feels Good
TTITLE5=Cam'ron - My Hood
TTITLE6=Cam'ron - That's Me
TTITLE7=Cam'ron - Let Me Know
TTITLE8=Cam'ron - What Means The World To Me
TTITLE9=Cam'ron - Facts Of Life
TTITLE10=Cam'ron - Y'all Know What I Want
TTITLE11=Cam'ron - All The Chickens
TTITLE12=Cam'ron/Ruff Endz - Freak
TTITLE13=Cam'ron/Prodigy  - Losin' Weight
TTITLE14=Cam'ron/Busta Rhymes  - What My Niggas Want
TTITLE15=Cam'ron/Memphis Bleek/Beanie Sigel  - The Roc
TTITLE16=Cam'ron/Juelz Santana  - Oh Boy
TTITLE17=Cam'ron/Juelz Santana/Jay-Z  - Welcome Tp NYC
TTITLE18=Cam'ron/Juelz Santana/Freaky Zeaky/Toya  - Hey Ma
TTITLE19=Cam'ron - Boy Boy
TTITLE20=Cam'ron/Tiffany  - Daydreaming
TTITLE21=The Diplomats/Master P - Bout It, Bout It Part II
TTITLE22=The Diplomats - I'm Ready
TTITLE23=The Diplomats - Built This City
TTITLE24=The Diplomats/DMX - What's Really Good
TTITLE25=The Diplomats - Dipset Anthem
TTITLE26=The Diplomats - Real Niggas
TTITLE27=The Diplomats - More Than Music
TTITLE28=The Diplomats - This Is What I Do
TTITLE29=The Diplomats/Freeway - My Love
TTITLE30=The Diplomats - Gangsta
TTITLE31=The Diplomats - Ground Zero
TTITLE32=Juelz Santana/Cam'ron - Dipset (Santana's Town)
TTITLE33=Cam'ron - Get 'Em Girls
TTITLE34=Cam'ron - Yeo
TTITLE35=Juelz Santana - Down
TTITLE36=Juelz Santana/T.I. - Now What
EXTD=
EXTT0=
EXTT1=
EXTT2=
EXTT3=
EXTT4=
EXTT5=
EXTT6=
EXTT7=
EXTT8=
EXTT9=
EXTT10=
EXTT11=
EXTT12=
EXTT13=
EXTT14=
EXTT15=
EXTT16=
EXTT17=
EXTT18=
EXTT19=
EXTT20=
EXTT21=
EXTT22=
EXTT23=
EXTT24=
EXTT25=
EXTT26=
EXTT27=
EXTT28=
EXTT29=
EXTT30=
EXTT31=
EXTT32=
EXTT33=
EXTT34=
EXTT35=
EXTT36=
PLAYORDER=
